<svg xmlns:xlink="http://www.w3.org/1999/xlink" xmlns="http://www.w3.org/2000/svg" class="Icon--icon--2AbGu SunriseSunset--sunIcon--2R1uu" set="current-conditions" name="sunset-line" theme="" data-testid="Icon" aria-hidden="true" role="img" viewBox="0 0 24 24" width="24"  height="24" ><title>Sunset</title><path d="M10.862 9.853L9.044 8.278a.75.75 0 1 0-.982 1.134l3.003 2.602a.75.75 0 0 0 .982 0l3.004-2.602a.75.75 0 0 0-.983-1.134l-1.706 1.478V4a.75.75 0 0 0-1.5 0v5.853zM21 19.075a.75.75 0 1 0 0-1.5H3.167a.75.75 0 1 0 0 1.5H21z" fill="#FEBC11"></path></svg>