<svg xmlns:xlink="http://www.w3.org/1999/xlink" xmlns="http://www.w3.org/2000/svg" class="Icon--icon--2AbGu SunriseSunset--sunIcon--2R1uu" set="current-conditions" name="sunrise-line" theme="" data-testid="Icon" aria-hidden="true" role="img" viewBox="0 0 24 24" width="24"  height="24" ><title>Sun Rise</title><path d="M10.862 6.052v5.329a.75.75 0 0 0 1.5 0V6.036l1.772 1.534a.75.75 0 0 0 .982-1.134l-3.003-2.601a.75.75 0 0 0-.982 0L8.128 6.436A.75.75 0 0 0 9.11 7.57l1.752-1.518zM21 19.128a.75.75 0 0 0 0-1.5H3.167a.75.75 0 1 0 0 1.5H21z" fill="#FEBC11"></path></svg>