<svg width="300" height="300" viewBox="0 0 300 300" fill="none" xmlns="http://www.w3.org/2000/svg">
<path fill-rule="evenodd" clip-rule="evenodd" d="M300 0H0V300H300V0ZM29.05 57.18H38.64V108H46.55V57.18H55.86V51.3H29.05V57.18ZM68.396 51.3H60.906V108H68.396V75.52C70.4027 73.7467 72.2227 72.86 73.856 72.86C75.0694 72.86 75.9093 73.2333 76.376 73.98C76.8427 74.7267 77.076 75.87 77.076 77.41V108H84.566V75.24C84.566 72.9067 84.0993 70.9467 83.166 69.36C82.2794 67.7733 80.7393 66.98 78.546 66.98C75.1394 66.98 71.756 68.5667 68.396 71.74V51.3ZM95.7879 106.81C97.5146 107.977 99.9412 108.56 103.068 108.56C107.035 108.56 109.928 107.44 111.748 105.2C113.568 102.96 114.478 99.7167 114.478 95.47V93.93H107.198V96.38C107.198 98.62 106.918 100.3 106.358 101.42C105.798 102.493 104.725 103.03 103.138 103.03C101.551 103.03 100.385 102.493 99.6379 101.42C98.9379 100.3 98.5879 98.5033 98.5879 96.03V87.91H114.548V84.62C114.548 80.4667 114.268 77.1767 113.708 74.75C113.195 72.2767 112.098 70.3633 110.418 69.01C108.785 67.6567 106.335 66.98 103.068 66.98C98.5879 66.98 95.4612 68.2867 93.6879 70.9C91.9612 73.4667 91.0979 77.55 91.0979 83.15V92.39C91.0979 96.1233 91.4479 99.1567 92.1479 101.49C92.8479 103.823 94.0612 105.597 95.7879 106.81ZM107.198 80.21V83.85H98.5879V81.68C98.5879 79.2533 98.7046 77.41 98.9379 76.15C99.1712 74.8433 99.5912 73.91 100.198 73.35C100.851 72.79 101.785 72.51 102.998 72.51C104.725 72.51 105.845 73.1167 106.358 74.33C106.918 75.4967 107.198 77.4567 107.198 80.21ZM37.1 131.3H30.52L39.76 188H45.78L53.76 146L61.67 188H67.41L76.51 131.3H70.07L64.12 172.25L56.42 131.51H50.82L43.19 172.04L37.1 131.3ZM86.0125 186.81C87.7392 187.977 90.1658 188.56 93.2925 188.56C97.2592 188.56 100.153 187.44 101.973 185.2C103.793 182.96 104.702 179.717 104.702 175.47V173.93H97.4225V176.38C97.4225 178.62 97.1425 180.3 96.5825 181.42C96.0225 182.493 94.9492 183.03 93.3625 183.03C91.7758 183.03 90.6092 182.493 89.8625 181.42C89.1625 180.3 88.8125 178.503 88.8125 176.03V167.91H104.772V164.62C104.772 160.467 104.493 157.177 103.933 154.75C103.419 152.277 102.323 150.363 100.643 149.01C99.0092 147.657 96.5592 146.98 93.2925 146.98C88.8125 146.98 85.6858 148.287 83.9125 150.9C82.1858 153.467 81.3225 157.55 81.3225 163.15V172.39C81.3225 176.123 81.6725 179.157 82.3725 181.49C83.0725 183.823 84.2858 185.597 86.0125 186.81ZM97.4225 160.21V163.85H88.8125V161.68C88.8125 159.253 88.9292 157.41 89.1625 156.15C89.3958 154.843 89.8158 153.91 90.4225 153.35C91.0758 152.79 92.0092 152.51 93.2225 152.51C94.9492 152.51 96.0692 153.117 96.5825 154.33C97.1425 155.497 97.4225 157.457 97.4225 160.21ZM114.635 187.23C115.895 188.117 117.295 188.56 118.835 188.56C120.982 188.56 122.732 187.93 124.085 186.67C125.485 185.41 126.465 183.87 127.025 182.05C127.165 183.357 127.492 185.34 128.005 188H134.865C134.399 184.547 134.165 181.303 134.165 178.27V159.79C134.165 155.497 133.279 152.3 131.505 150.2C129.779 148.053 126.979 146.98 123.105 146.98C118.999 146.98 115.965 148.053 114.005 150.2C112.045 152.3 111.019 155.59 110.925 160.07L118.345 160.35V158.32C118.345 154.493 119.769 152.58 122.615 152.58C124.249 152.58 125.322 153.14 125.835 154.26C126.395 155.333 126.675 157.2 126.675 159.86V162.73C122.942 164.223 120.025 165.553 117.925 166.72C115.825 167.887 114.099 169.473 112.745 171.48C111.392 173.44 110.715 176.007 110.715 179.18C110.715 180.767 111.065 182.283 111.765 183.73C112.465 185.177 113.422 186.343 114.635 187.23ZM124.645 181C123.712 181.747 122.755 182.12 121.775 182.12C120.609 182.12 119.722 181.677 119.115 180.79C118.509 179.857 118.205 178.55 118.205 176.87C118.205 175.377 118.555 174.093 119.255 173.02C120.002 171.947 120.912 171.013 121.985 170.22C123.105 169.38 124.669 168.4 126.675 167.28V178.76C126.255 179.46 125.579 180.207 124.645 181ZM142.843 178.9C142.843 185.34 145.76 188.56 151.593 188.56C153.18 188.56 154.907 188.42 156.773 188.14V182.61C155.887 182.75 154.977 182.82 154.043 182.82C152.597 182.82 151.617 182.493 151.103 181.84C150.59 181.187 150.333 180.043 150.333 178.41V152.51H156.843V147.54H150.333V135.71H142.843V147.54H138.573V152.51H142.843V178.9ZM170.046 131.3H162.556V188H170.046V155.52C172.053 153.747 173.873 152.86 175.506 152.86C176.72 152.86 177.56 153.233 178.026 153.98C178.493 154.727 178.726 155.87 178.726 157.41V188H186.216V155.24C186.216 152.907 185.75 150.947 184.816 149.36C183.93 147.773 182.39 146.98 180.196 146.98C176.79 146.98 173.406 148.567 170.046 151.74V131.3ZM197.438 186.81C199.165 187.977 201.592 188.56 204.718 188.56C208.685 188.56 211.578 187.44 213.398 185.2C215.218 182.96 216.128 179.717 216.128 175.47V173.93H208.848V176.38C208.848 178.62 208.568 180.3 208.008 181.42C207.448 182.493 206.375 183.03 204.788 183.03C203.202 183.03 202.035 182.493 201.288 181.42C200.588 180.3 200.238 178.503 200.238 176.03V167.91H216.198V164.62C216.198 160.467 215.918 157.177 215.358 154.75C214.845 152.277 213.748 150.363 212.068 149.01C210.435 147.657 207.985 146.98 204.718 146.98C200.238 146.98 197.112 148.287 195.338 150.9C193.612 153.467 192.748 157.55 192.748 163.15V172.39C192.748 176.123 193.098 179.157 193.798 181.49C194.498 183.823 195.712 185.597 197.438 186.81ZM208.848 160.21V163.85H200.238V161.68C200.238 159.253 200.355 157.41 200.588 156.15C200.822 154.843 201.242 153.91 201.848 153.35C202.502 152.79 203.435 152.51 204.648 152.51C206.375 152.51 207.495 153.117 208.008 154.33C208.568 155.497 208.848 157.457 208.848 160.21ZM230.681 147.54H223.191V188H230.681V158.46C231.568 157.013 232.478 156.01 233.411 155.45C234.391 154.843 235.488 154.54 236.701 154.54C237.961 154.54 239.338 154.82 240.831 155.38V147.12C240.458 147.073 240.061 147.05 239.641 147.05C238.008 147.05 236.445 147.517 234.951 148.45C233.505 149.383 232.081 150.993 230.681 153.28V147.54ZM54.32 211.3H32.41V268H40.32V241.47H51.17V235.87H40.32V216.97H54.32V211.3ZM61.0838 264.78C62.9038 267.3 65.9604 268.56 70.2538 268.56C74.5004 268.56 77.5104 267.3 79.2838 264.78C81.1038 262.213 82.0137 258.503 82.0137 253.65V241.89C82.0137 237.037 81.1038 233.35 79.2838 230.83C77.5104 228.263 74.5004 226.98 70.2538 226.98C65.9604 226.98 62.9038 228.263 61.0838 230.83C59.3104 233.35 58.4238 237.037 58.4238 241.89V253.65C58.4238 258.503 59.3104 262.213 61.0838 264.78ZM73.1937 261.84C72.5871 262.633 71.6071 263.03 70.2538 263.03C68.9004 263.03 67.8971 262.633 67.2438 261.84C66.6371 261.047 66.2637 260.067 66.1237 258.9C65.9837 257.733 65.9137 256.147 65.9137 254.14V241.47C65.9137 239.463 65.9837 237.877 66.1237 236.71C66.2637 235.497 66.6371 234.493 67.2438 233.7C67.8971 232.907 68.9004 232.51 70.2538 232.51C71.6071 232.51 72.5871 232.907 73.1937 233.7C73.8004 234.493 74.1738 235.497 74.3138 236.71C74.4538 237.877 74.5238 239.463 74.5238 241.47V254.14C74.5238 256.147 74.4538 257.733 74.3138 258.9C74.1738 260.067 73.8004 261.047 73.1937 261.84ZM96.5601 227.54H89.0701V268H96.5601V238.46C97.4467 237.013 98.3567 236.01 99.2901 235.45C100.27 234.843 101.367 234.54 102.58 234.54C103.84 234.54 105.217 234.82 106.71 235.38V227.12C106.337 227.073 105.94 227.05 105.52 227.05C103.887 227.05 102.323 227.517 100.83 228.45C99.3834 229.383 97.9601 230.993 96.5601 233.28V227.54ZM115.27 266.81C116.997 267.977 119.424 268.56 122.55 268.56C126.517 268.56 129.41 267.44 131.23 265.2C133.05 262.96 133.96 259.717 133.96 255.47V253.93H126.68V256.38C126.68 258.62 126.4 260.3 125.84 261.42C125.28 262.493 124.207 263.03 122.62 263.03C121.034 263.03 119.867 262.493 119.12 261.42C118.42 260.3 118.07 258.503 118.07 256.03V247.91H134.03V244.62C134.03 240.467 133.75 237.177 133.19 234.75C132.677 232.277 131.58 230.363 129.9 229.01C128.267 227.657 125.817 226.98 122.55 226.98C118.07 226.98 114.944 228.287 113.17 230.9C111.444 233.467 110.58 237.55 110.58 243.15V252.39C110.58 256.123 110.93 259.157 111.63 261.49C112.33 263.823 113.544 265.597 115.27 266.81ZM126.68 240.21V243.85H118.07V241.68C118.07 239.253 118.187 237.41 118.42 236.15C118.654 234.843 119.074 233.91 119.68 233.35C120.334 232.79 121.267 232.51 122.48 232.51C124.207 232.51 125.327 233.117 125.84 234.33C126.4 235.497 126.68 237.457 126.68 240.21ZM144.523 266.67C146.25 267.93 148.7 268.56 151.873 268.56C156.027 268.56 158.897 267.487 160.483 265.34C162.117 263.193 162.933 259.927 162.933 255.54V252.74H156.143V256.03C156.143 258.41 155.887 260.183 155.373 261.35C154.86 262.47 153.74 263.03 152.013 263.03C150.847 263.03 149.937 262.797 149.283 262.33C148.677 261.817 148.233 260.953 147.953 259.74C147.673 258.48 147.533 256.683 147.533 254.35V241.61C147.533 239.183 147.65 237.34 147.883 236.08C148.117 234.82 148.537 233.91 149.143 233.35C149.75 232.79 150.683 232.51 151.943 232.51C153.577 232.51 154.673 233.047 155.233 234.12C155.84 235.147 156.143 236.99 156.143 239.65V242.1H162.933V239.72C162.933 236.78 162.607 234.4 161.953 232.58C161.347 230.713 160.227 229.313 158.593 228.38C157.007 227.447 154.767 226.98 151.873 226.98C148.7 226.98 146.25 227.61 144.523 228.87C142.797 230.083 141.607 231.857 140.953 234.19C140.347 236.523 140.043 239.51 140.043 243.15V252.46C140.043 256.007 140.347 258.947 140.953 261.28C141.607 263.567 142.797 265.363 144.523 266.67ZM172.673 267.23C173.932 268.117 175.333 268.56 176.872 268.56C179.019 268.56 180.769 267.93 182.122 266.67C183.523 265.41 184.503 263.87 185.062 262.05C185.202 263.357 185.529 265.34 186.042 268H192.902C192.436 264.547 192.202 261.303 192.202 258.27V239.79C192.202 235.497 191.316 232.3 189.542 230.2C187.816 228.053 185.016 226.98 181.143 226.98C177.036 226.98 174.003 228.053 172.042 230.2C170.083 232.3 169.056 235.59 168.962 240.07L176.383 240.35V238.32C176.383 234.493 177.806 232.58 180.652 232.58C182.286 232.58 183.359 233.14 183.872 234.26C184.432 235.333 184.712 237.2 184.712 239.86V242.73C180.979 244.223 178.062 245.553 175.962 246.72C173.863 247.887 172.136 249.473 170.783 251.48C169.429 253.44 168.753 256.007 168.753 259.18C168.753 260.767 169.102 262.283 169.803 263.73C170.503 265.177 171.459 266.343 172.673 267.23ZM182.682 261C181.749 261.747 180.792 262.12 179.812 262.12C178.646 262.12 177.759 261.677 177.152 260.79C176.546 259.857 176.242 258.55 176.242 256.87C176.242 255.377 176.592 254.093 177.292 253.02C178.039 251.947 178.949 251.013 180.023 250.22C181.143 249.38 182.706 248.4 184.712 247.28V258.76C184.292 259.46 183.616 260.207 182.682 261ZM200.797 265.48C202.851 267.533 205.511 268.56 208.777 268.56C212.231 268.56 214.961 267.673 216.967 265.9C218.974 264.127 219.977 261.56 219.977 258.2C219.977 255.867 219.464 253.883 218.437 252.25C217.457 250.617 216.057 248.96 214.237 247.28L207.097 240.7C205.744 239.487 205.067 238.133 205.067 236.64C205.067 235.473 205.417 234.493 206.117 233.7C206.864 232.907 207.844 232.51 209.057 232.51C210.551 232.51 211.671 233.117 212.417 234.33C213.164 235.497 213.701 237.223 214.027 239.51L219.067 237.62C218.787 234.493 217.761 231.95 215.987 229.99C214.261 227.983 211.857 226.98 208.777 226.98C205.557 226.98 203.014 227.867 201.147 229.64C199.281 231.367 198.347 233.793 198.347 236.92C198.347 239.113 198.767 240.98 199.607 242.52C200.494 244.013 201.731 245.437 203.317 246.79L210.247 252.74C211.414 253.72 212.254 254.677 212.767 255.61C213.281 256.543 213.537 257.593 213.537 258.76C213.537 260.067 213.164 261.117 212.417 261.91C211.717 262.657 210.714 263.03 209.407 263.03C207.727 263.03 206.421 262.4 205.487 261.14C204.601 259.88 203.971 257.943 203.597 255.33L197.367 257.22C197.647 260.673 198.791 263.427 200.797 265.48ZM227.609 258.9C227.609 265.34 230.525 268.56 236.359 268.56C237.945 268.56 239.672 268.42 241.539 268.14V262.61C240.652 262.75 239.742 262.82 238.809 262.82C237.362 262.82 236.382 262.493 235.869 261.84C235.355 261.187 235.099 260.043 235.099 258.41V232.51H241.609V227.54H235.099V215.71H227.609V227.54H223.339V232.51H227.609V258.9Z" fill="white"/>
</svg>
